<svg id="Layer_1" data-name="Layer 1" xmlns="http://www.w3.org/2000/svg" viewBox="0 0 225.8 49.1"><defs><style>.cls-1,.cls-3{fill:#004987;}.cls-2{fill:none;}.cls-3{fill-rule:evenodd;}.cls-4{fill:#83ae30;}</style></defs><title>logo</title><path class="cls-1" d="M211.84,433.68v-3a.69.69,0,0,0-.71-.77H198.68c-6.84,0-7.93-1.81-7.93-6.71v-35.1a1.29,1.29,0,0,0-1.3-1.28h-3.29a1.29,1.29,0,0,0-1.29,1.28v35.1c0,10.64,6.84,12,13.74,12a106.64,106.64,0,0,0,12.58-.58.92.92,0,0,0,.65-.9Z" transform="translate(-184.87 -386.32)"/><path class="cls-2" d="M211.84,433.68v-3a.69.69,0,0,0-.71-.77H198.68c-6.84,0-7.93-1.81-7.93-6.71v-35.1a1.29,1.29,0,0,0-1.3-1.28h-3.29a1.29,1.29,0,0,0-1.29,1.28v35.1c0,10.64,6.84,12,13.74,12a106.64,106.64,0,0,0,12.58-.58.92.92,0,0,0,.65-.9Z" transform="translate(-184.87 -386.32)"/><path class="cls-1" d="M225.21,433.42V388a1.16,1.16,0,0,0-1.16-1.22H220.5a1.16,1.16,0,0,0-1.16,1.22v45.42a1.23,1.23,0,0,0,1.16,1.29h3.55a1.23,1.23,0,0,0,1.16-1.29Z" transform="translate(-184.87 -386.32)"/><path class="cls-2" d="M225.21,433.42V388a1.16,1.16,0,0,0-1.16-1.22H220.5a1.16,1.16,0,0,0-1.16,1.22v45.42a1.23,1.23,0,0,0,1.16,1.29h3.55a1.23,1.23,0,0,0,1.16-1.29Z" transform="translate(-184.87 -386.32)"/><path class="cls-3" d="M266.17,421.51v-1.09A10.57,10.57,0,0,0,259,410a10.36,10.36,0,0,0,6.9-10.16v-1c0-9.77-8.64-12.48-18.9-12.48a94.58,94.58,0,0,0-10.26.52,2.09,2.09,0,0,0-2.06,2.39v43c0,1.61.64,2.19,2.13,2.39a75.92,75.92,0,0,0,10.51.58c10.07,0,18.84-2.84,18.84-13.65ZM260,399.84c0,4.08-2,7.71-9.48,7.71h-9.94V391.48c1.81-.06,4.2-.19,6.39-.19,7.87,0,13,1.3,13,7.51v1Zm.26,21.67c0,6.95-5,8.68-13,8.68-2.26,0-4.58-.19-6.71-.26V412.26h9.94c7.61,0,9.74,3.92,9.74,8.16v1.09Z" transform="translate(-184.87 -386.32)"/><path class="cls-2" d="M266.17,421.51v-1.09A10.57,10.57,0,0,0,259,410a10.36,10.36,0,0,0,6.9-10.16v-1c0-9.77-8.64-12.48-18.9-12.48a94.58,94.58,0,0,0-10.26.52,2.09,2.09,0,0,0-2.06,2.39v43c0,1.61.64,2.19,2.13,2.39a75.92,75.92,0,0,0,10.51.58c10.07,0,18.84-2.84,18.84-13.65ZM260,399.84c0,4.08-2,7.71-9.48,7.71h-9.94V391.48c1.81-.06,4.2-.19,6.39-.19,7.87,0,13,1.3,13,7.51v1Zm.26,21.67c0,6.95-5,8.68-13,8.68-2.26,0-4.58-.19-6.71-.26V412.26h9.94c7.61,0,9.74,3.92,9.74,8.16v1.09Z" transform="translate(-184.87 -386.32)"/><path class="cls-1" d="M301.19,433.93v-3.29a.7.7,0,0,0-.72-.77H288c-6.83,0-7.93-1.81-7.93-6.71V412.32h19.8a1.3,1.3,0,0,0,1.3-1.29v-2.45a1.3,1.3,0,0,0-1.3-1.29h-19.8v-9c0-4.9,1.1-6.71,7.93-6.71h12.45a.7.7,0,0,0,.72-.77v-3.23a.92.92,0,0,0-.65-.9c-2.71-.26-8.77-.39-12.58-.39-9,0-13.74,3.42-13.74,12v24.84c0,8.58,4.71,12,13.74,12,3.81,0,10.13-.07,12.58-.32a.92.92,0,0,0,.65-.91Z" transform="translate(-184.87 -386.32)"/><path class="cls-2" d="M301.19,433.93v-3.29a.7.7,0,0,0-.72-.77H288c-6.83,0-7.93-1.81-7.93-6.71V412.32h19.8a1.3,1.3,0,0,0,1.3-1.29v-2.45a1.3,1.3,0,0,0-1.3-1.29h-19.8v-9c0-4.9,1.1-6.71,7.93-6.71h12.45a.7.7,0,0,0,.72-.77v-3.23a.92.92,0,0,0-.65-.9c-2.71-.26-8.77-.39-12.58-.39-9,0-13.74,3.42-13.74,12v24.84c0,8.58,4.71,12,13.74,12,3.81,0,10.13-.07,12.58-.32a.92.92,0,0,0,.65-.91Z" transform="translate(-184.87 -386.32)"/><path class="cls-3" d="M343.05,433.87a1,1,0,0,0-.2-.58l-11.74-19.62c5.87-1.54,10.13-5.8,10.13-13v-.45c0-10.45-7.87-13.87-18.06-13.87-3.74,0-8.58.2-11.36.52-1.16.13-1.55.51-1.55,1.42v45.16a1.23,1.23,0,0,0,1.17,1.29h3.48a1.23,1.23,0,0,0,1.16-1.29v-19c3.42.13,5,.19,7.1.19h1.67l11.55,19.23a1.52,1.52,0,0,0,1.68.84h4.13a.82.82,0,0,0,.84-.84Zm-7.61-33.23c0,7-4.33,9-12.26,9-1.49,0-4.26-.06-7.1-.13V391.81c1.55-.2,5.1-.2,7.1-.2,8.06,0,12.26,2.13,12.26,8.58v.45Z" transform="translate(-184.87 -386.32)"/><path class="cls-2" d="M343.05,433.87a1,1,0,0,0-.2-.58l-11.74-19.62c5.87-1.54,10.13-5.8,10.13-13v-.45c0-10.45-7.87-13.87-18.06-13.87-3.74,0-8.58.2-11.36.52-1.16.13-1.55.51-1.55,1.42v45.16a1.23,1.23,0,0,0,1.17,1.29h3.48a1.23,1.23,0,0,0,1.16-1.29v-19c3.42.13,5,.19,7.1.19h1.67l11.55,19.23a1.52,1.52,0,0,0,1.68.84h4.13a.82.82,0,0,0,.84-.84Zm-7.61-33.23c0,7-4.33,9-12.26,9-1.49,0-4.26-.06-7.1-.13V391.81c1.55-.2,5.1-.2,7.1-.2,8.06,0,12.26,2.13,12.26,8.58v.45Z" transform="translate(-184.87 -386.32)"/><path class="cls-3" d="M382.38,414.9v-8.32c0-14.32-7.29-20.26-17.42-20.26s-17.48,5.94-17.48,20.26v8.32c0,14.32,7.35,20.26,17.48,20.26s17.42-5.94,17.42-20.26Zm-5.93,0c0,10.84-4.45,15-11.49,15s-11.54-4.13-11.54-15v-8.32c0-10.84,4.51-15,11.54-15s11.49,4.13,11.49,15v8.32Z" transform="translate(-184.87 -386.32)"/><path class="cls-2" d="M382.38,414.9v-8.32c0-14.32-7.29-20.26-17.42-20.26s-17.48,5.94-17.48,20.26v8.32c0,14.32,7.35,20.26,17.48,20.26s17.42-5.94,17.42-20.26Zm-5.93,0c0,10.84-4.45,15-11.49,15s-11.54-4.13-11.54-15v-8.32c0-10.84,4.51-15,11.54-15s11.49,4.13,11.49,15v8.32Z" transform="translate(-184.87 -386.32)"/><path class="cls-4" d="M389.36,424.76A10.66,10.66,0,1,1,400,435.42a10.66,10.66,0,0,1-10.66-10.66Z" transform="translate(-184.87 -386.32)"/></svg>